# xmcd
#
# Track frame offsets:
#	175
#	18691
#	39425
#	61525
#	75854
#	93529
#	115977
#	130017
#	149429
#	175607
#	193029
#	217961
#
# Disc length: 3182 seconds
#
# Revision: 0
# Processed by: cddbd v1.4PL0 Copyright (c) Steve Scherf et al.
# Submitted via: EasyCDDAExtractor 4.6.0.1
#
DISCID=970c6c0c
DTITLE=J.C. Grimshaw - Dance when you're living
DYEAR=1900
DGENRE=
TTITLE0=Ballad of Rod Garfield
TTITLE1=Hey Hey Hey
TTITLE2=Honey Man
TTITLE3=Pretty Girl
TTITLE4=Silver Locket
TTITLE5=Mean Old Woman
TTITLE6=Goin away
TTITLE7=Well well Willy
TTITLE8=Little Boat
TTITLE9=Train a commin
TTITLE10=Show Some Kindness
TTITLE11=Dance when you are living
EXTD=
EXTT0=
EXTT1=
EXTT2=
EXTT3=
EXTT4=
EXTT5=
EXTT6=
EXTT7=
EXTT8=
EXTT9=
EXTT10=
EXTT11=
PLAYORDER=
